REM DIRINDEX 1\2,1\3,1\4,1\5,1\6
REM DIRNAME folder01,folder02,folder03,folder04,folder05,folder06
TITLE ""
FILE "DISC2Track07.mp3" MP3
  TRACK 01 AUDIO
    TITLE "0:"
    INDEX 01 00:00:00
  TRACK 02 AUDIO
    TITLE "2:cjc129_1113"
    INDEX 01 00:03:15
  TRACK 03 AUDIO
    TITLE "0:"
    INDEX 01 00:08:17
  TRACK 04 AUDIO
    TITLE "3:cjc129_1114"
    INDEX 01 00:09:30
  TRACK 05 AUDIO
    TITLE "0:"
    INDEX 01 00:10:47
  TRACK 06 AUDIO
    TITLE "5:cjc129_1115"
    INDEX 01 00:11:03
  TRACK 07 AUDIO
    TITLE "0:"
    INDEX 01 00:17:16
  TRACK 08 AUDIO
    TITLE "4:cjc129_1116"
    INDEX 01 00:18:07
  TRACK 09 AUDIO
    TITLE "0:"
    INDEX 01 00:19:26
  TRACK 10 AUDIO
    TITLE "6:cjc129_1117"
    INDEX 01 00:19:58
  TRACK 11 AUDIO
    TITLE "0:"
    INDEX 01 00:23:32
  TRACK 12 AUDIO
    TITLE "3:cjc129_1118"
    INDEX 01 00:25:05
  TRACK 13 AUDIO
    TITLE "0:"
    INDEX 01 00:26:30
  TRACK 14 AUDIO
    TITLE "5:cjc129_1119"
    INDEX 01 00:26:60
  TRACK 15 AUDIO
    TITLE "0:"
    INDEX 01 00:31:65
  TRACK 16 AUDIO
    TITLE "4:cjc129_1120"
    INDEX 01 00:32:58
  TRACK 17 AUDIO
    TITLE "0:"
    INDEX 01 00:34:08
  TRACK 18 AUDIO
    TITLE "6:cjc129_1121"
    INDEX 01 00:34:38
  TRACK 19 AUDIO
    TITLE "0:"
    INDEX 01 00:38:55
  TRACK 20 AUDIO
    TITLE "3:cjc129_1122"
    INDEX 01 00:40:30
  TRACK 21 AUDIO
    TITLE "0:"
    INDEX 01 00:42:02
  TRACK 22 AUDIO
    TITLE "5:cjc129_1123"
    INDEX 01 00:42:35
  TRACK 23 AUDIO
    TITLE "0:"
    INDEX 01 00:46:68
  TRACK 24 AUDIO
    TITLE "4:cjc129_1124"
    INDEX 01 00:47:64
  TRACK 25 AUDIO
    TITLE "0:"
    INDEX 01 00:49:35
  TRACK 26 AUDIO
    TITLE "6:cjc129_1125"
    INDEX 01 00:49:70
  TRACK 27 AUDIO
    TITLE "0:"
    INDEX 01 00:53:35
  TRACK 28 AUDIO
    TITLE "3:cjc129_1126"
    INDEX 01 00:55:10
  TRACK 29 AUDIO
    TITLE "0:"
    INDEX 01 00:56:41
  TRACK 30 AUDIO
    TITLE "5:cjc129_1127"
    INDEX 01 00:56:74
  TRACK 31 AUDIO
    TITLE "0:"
    INDEX 01 01:01:36
  TRACK 32 AUDIO
    TITLE "4:cjc129_1128"
    INDEX 01 01:02:26
  TRACK 33 AUDIO
    TITLE "0:"
    INDEX 01 01:03:55
  TRACK 34 AUDIO
    TITLE "6:cjc129_1129"
    INDEX 01 01:04:15
  TRACK 35 AUDIO
    TITLE "0:"
    INDEX 01 01:08:42
  TRACK 36 AUDIO
    TITLE "3:cjc129_1130"
    INDEX 01 01:10:18
  TRACK 37 AUDIO
    TITLE "0:"
    INDEX 01 01:11:54
  TRACK 38 AUDIO
    TITLE "5:cjc129_1131"
    INDEX 01 01:12:11
  TRACK 39 AUDIO
    TITLE "0:"
    INDEX 01 01:13:53
  TRACK 40 AUDIO
    TITLE "4:cjc129_1132"
    INDEX 01 01:14:47
  TRACK 41 AUDIO
    TITLE "0:"
    INDEX 01 01:16:05
  TRACK 42 AUDIO
    TITLE "6:cjc129_1133"
    INDEX 01 01:16:38
  TRACK 43 AUDIO
    TITLE "0:"
    INDEX 01 01:21:61
  TRACK 44 AUDIO
    TITLE "3:cjc129_1134"
    INDEX 01 01:23:36
  TRACK 45 AUDIO
    TITLE "0:"
    INDEX 01 01:24:47
  TRACK 46 AUDIO
    TITLE "5:cjc129_1135"
    INDEX 01 01:25:06
  TRACK 47 AUDIO
    TITLE "0:"
    INDEX 01 01:26:44
  TRACK 48 AUDIO
    TITLE "4:cjc129_1136"
    INDEX 01 01:27:34
  TRACK 49 AUDIO
    TITLE "0:"
    INDEX 01 01:28:47
  TRACK 50 AUDIO
    TITLE "6:cjc129_1137"
    INDEX 01 01:29:01
  TRACK 51 AUDIO
    TITLE "0:"
    INDEX 01 01:33:70
  TRACK 52 AUDIO
    TITLE "3:cjc129_1138"
    INDEX 01 01:35:45
  TRACK 53 AUDIO
    TITLE "0:"
    INDEX 01 01:36:74
  TRACK 54 AUDIO
    TITLE "5:cjc129_1139"
    INDEX 01 01:37:32
  TRACK 55 AUDIO
    TITLE "0:"
    INDEX 01 01:41:26
  TRACK 56 AUDIO
    TITLE "4:cjc129_1140"
    INDEX 01 01:42:16
  TRACK 57 AUDIO
    TITLE "0:"
    INDEX 01 01:43:47
  TRACK 58 AUDIO
    TITLE "6:cjc129_1141"
    INDEX 01 01:44:03
  TRACK 59 AUDIO
    TITLE "0:"
    INDEX 01 01:47:70
  TRACK 60 AUDIO
    TITLE "3:cjc129_1142"
    INDEX 01 01:49:45
  TRACK 61 AUDIO
    TITLE "0:"
    INDEX 01 01:50:68
  TRACK 62 AUDIO
    TITLE "5:cjc129_1143"
    INDEX 01 01:51:25
  TRACK 63 AUDIO
    TITLE "0:"
    INDEX 01 01:55:46
  TRACK 64 AUDIO
    TITLE "4:cjc129_1144"
    INDEX 01 01:56:37
  TRACK 65 AUDIO
    TITLE "0:"
    INDEX 01 01:57:60
  TRACK 66 AUDIO
    TITLE "6:cjc129_1145"
    INDEX 01 01:58:17
  TRACK 67 AUDIO
    TITLE "0:"
    INDEX 01 02:02:46
